. 
  
http://www.torrentday.com/        :     The Hottest Private Tracker On The Net!!!
 
http://www.torrentday.com          :     Once & For all ;)


               www . TorrentDay . Com 

(((((((((((((= Enjoy No RAR releases =))))))))))))))))))))


...................................NFO:....................................

.[img]http://img543.imageshack.us/img543/1749/residentl.jpg[/img]

[color=blue][size=5][b]The Resident 2011 BDRip XVID AC3 HQ Hive-CM8[/b][/size][/color]



[b]Thx Hive

CM8 Doing It Right The First Time :D

Why download a touched up rip of a rip BRrip
Get the real deal BDRip
Enjoy

Source US Bluray

Video: 720x304 @birate 1900 2pass
Audio: DTS to AC3 5.1 @448
Sample: yes included[/b]
 
http://www.imdb.com/title/tt1334102/


General
Complete name                    : The.Resident.2011.BDRip.XVID.AC3.HQ.Hive-CM8.avi
Format                           : AVI
Format/Info                      : Audio Video Interleave
File size                        : 1.52 GiB
Duration                         : 1h 31mn
Overall bit rate                 : 2 379 Kbps
Writing application              : Nandub v1.0rc2
Writing library                  : Nandub build 1853/release

Video
ID                               : 0
Format                           : MPEG-4 Visual
Format profile                   : Advanced Simple@L5
Format settings, BVOP            : Yes
Format settings, QPel            : Yes
Format settings, GMC             : No warppoints
Format settings, Matrix          : Default (H.263)
Muxing mode                      : Packed bitstream
Codec ID                         : XVID
Codec ID/Hint                    : XviD
Duration                         : 1h 31mn
Bit rate                         : 1 921 Kbps
Width                            : 720 pixels
Height                           : 304 pixels
Display aspect ratio             : 2.35:1
Frame rate                       : 23.976 fps
Color space                      : YUV
Chroma subsampling               : 4:2:0
Bit depth                        : 8 bits
Scan type                        : Progressive
Bits/(Pixel*Frame)               : 0.366
Stream size                      : 1.23 GiB (81%)
Writing library                  : XviD 1.2.1 (UTC 2008-12-04)

Audio
ID                               : 1
Format                           : AC-3
Format/Info                      : Audio Coding 3
Mode extension                   : CM (complete main)
Codec ID                         : 2000
Duration                         : 1h 31mn
Bit rate mode                    : Constant
Bit rate                         : 448 Kbps
Channel(s)                       : 6 channels
Channel positions                : Front: L C R, Side: L R, LFE
Sampling rate                    : 48.0 KHz
Bit depth                        : 16 bits
Stream size                      : 293 MiB (19%)
Alignment                        : Split accross interleaves
Interleave, duration             : 42 ms (1.00 video frame)
Interleave, preload duration     : 500 ms




Jeffrey Dean Morgan ... Max
Hilary Swank ... Dr. Juliet Dermer
Christopher Lee ... August
Lee Pace ... Jack
Michael Massee ... Security tech / forgot name
Aunjanue Ellis
Kisha Sierra ...Good looking girl
Penny Balfour ... Meth Addict
Alexandria Morrow ... Art Model
Sandi K Shelby ... E.R. Doctor
Peggy Miley ... Mrs. Rosenbaum
Michael Showers ... August's ER Doctor
Skippy the Dog ... Amelie
Cliff Gravel ... E. R. Patient



When a young doctor suspects she may not be alone in her new Brooklyn loft, she learns 
that her landlord has formed a frightening obsession with her.  



[img]http://img13.imageshack.us/img13/7783/rrrereee.png[/img]
[img]http://img192.imageshack.us/img192/3088/69291979.png[/img]
[img]http://img819.imageshack.us/img819/8020/rree.png[/img]
[img]http://img715.imageshack.us/img715/9461/rrerrereee.png[/img]
[img]http://img26.imageshack.us/img26/8405/rrreee.png[/img]





Greetz

iNK,LUSi,,MAGNET,CLASSiFiED,THC,LEGi0N,T0XiC,IMAGiNE,ViSiON,WBZ,FLAWL3SS,NOVA
Vik,Rapeseed,D2U,SAFC,goldadvance,MEMORY100,KaN1vE,Unevano,Pinnz,Wayne,Mr Hive
and all P2P groups 
Great Work Guys :D